<svg width="19" height="22" viewBox="0 0 19 22" fill="none" xmlns="http://www.w3.org/2000/svg">
<path fill-rule="evenodd" clip-rule="evenodd" d="M9 22C3 19.3271 0 16.6604 0 14V4C0 3 0.5 3 2 2C2.16179 1.89214 5.56321 0 9 0C11.9952 0 14.5 1 16 2C17.5 3 18 3 18 4C18.0264 4.29131 18 12.5 18 14C18 16.6667 15 19.3333 9 22ZM16 14C16 13.7697 16.0006 13.3838 16.0018 12.7547C16.0024 12.451 16.0037 11.8626 16.0059 10.8014C16.0072 10.1695 16.0082 9.62725 16.009 9.10978C16.0127 6.87764 16.0117 4.96182 16.0096 4.36928C15.6788 4.16382 15.1627 3.84551 14.8906 3.6641C13.4143 2.67992 11.2602 2 9 2C6.83809 2 4.02864 3.05128 3.1094 3.6641C2.83989 3.84377 2.33104 4.15772 2 4.36333V14C2 15.5085 4.22911 17.5687 9.00093 19.802C13.7722 17.5737 16 15.5142 16 14ZM8 11.5858L12.2929 7.29289L13.7071 8.70711L8 14.4142L4.29289 10.7071L5.70711 9.29289L8 11.5858Z" fill="#35B984"/>
</svg>
